<svg width="233" height="233" viewBox="0 0 233 233" fill="none" xmlns="http://www.w3.org/2000/svg">
<path d="M226.64 116.32C226.64 138.139 220.17 159.468 208.048 177.61C195.926 195.753 178.696 209.893 158.538 218.242C138.379 226.592 116.198 228.777 94.7977 224.52C73.3977 220.263 53.7406 209.757 38.312 194.328C22.8835 178.899 12.3765 159.242 8.11982 137.842C3.8631 116.442 6.04779 94.2607 14.3977 74.1023C22.7475 53.944 36.8875 36.7144 55.0295 24.5923C73.1716 12.4702 94.5008 6 116.32 6C145.579 6.0005 173.639 17.6236 194.327 38.3125C215.016 59.0014 226.639 87.0615 226.64 116.32Z" stroke="#666666" stroke-width="12"/>
<path d="M115.735 50.9329C123.156 50.9329 130.41 53.1335 136.58 57.2563C142.75 61.379 147.559 67.2389 150.398 74.0947C153.238 80.9506 153.981 88.4946 152.533 95.7727C151.085 103.051 147.511 109.736 142.264 114.983C137.016 120.23 130.331 123.803 123.053 125.25C115.775 126.698 108.231 125.954 101.375 123.114C94.5193 120.274 88.6598 115.465 84.5376 109.294C80.4153 103.124 78.2153 95.8696 78.2159 88.4489C78.2172 78.499 82.1707 68.9569 89.2066 61.9215C96.2426 54.8861 105.785 50.9335 115.735 50.9329Z" fill="#666666"/>
<path d="M115.735 197.595C103.834 197.59 92.0781 194.985 81.2888 189.963C70.4994 184.942 60.9373 177.623 53.2709 168.521C57.2853 160.848 63.319 154.418 70.7209 149.924C78.1228 145.43 86.6116 143.043 95.2709 143.021C96.2968 143.026 97.3162 143.185 98.2949 143.492C109.592 147.408 121.877 147.408 133.174 143.492C134.153 143.185 135.172 143.026 136.198 143.021C144.857 143.043 153.346 145.43 160.748 149.924C168.15 154.418 174.184 160.848 178.198 168.521C170.532 177.624 160.97 184.943 150.181 189.965C139.392 194.987 127.636 197.591 115.735 197.596V197.595Z" fill="#666666"/>
</svg>
