<svg width="336" height="336" viewBox="0 0 336 336" fill="none" xmlns="http://www.w3.org/2000/svg">
<path d="M330 168C330 200.04 320.499 231.362 302.698 258.002C284.897 284.643 259.596 305.407 229.995 317.668C200.393 329.93 167.82 333.138 136.395 326.887C104.971 320.636 76.1049 305.207 53.4488 282.551C30.7927 259.895 15.3637 231.029 9.11287 199.605C2.86206 168.18 6.07018 135.607 18.3316 106.005C30.593 76.4036 51.3569 51.1027 77.9977 33.3019C104.638 15.5011 135.96 6 168 6C210.965 6.00074 252.17 23.0687 282.551 53.4495C312.931 83.8302 329.999 125.035 330 168Z" stroke="#666666" stroke-width="12"/>
<path d="M167.155 73.5621C177.873 73.5621 188.35 76.7403 197.261 82.6948C206.172 88.6492 213.118 97.1126 217.219 107.014C221.32 116.916 222.393 127.812 220.302 138.324C218.211 148.835 213.049 158.491 205.471 166.069C197.892 173.647 188.236 178.808 177.724 180.898C167.212 182.988 156.317 181.915 146.415 177.813C136.514 173.711 128.051 166.765 122.097 157.853C116.143 148.941 112.966 138.464 112.967 127.746C112.969 113.375 118.679 99.594 128.841 89.4328C139.003 79.2716 152.784 73.5628 167.155 73.5621Z" fill="#666666"/>
<path d="M167.155 285.385C149.967 285.377 132.988 281.616 117.405 274.363C101.822 267.11 88.0114 256.54 76.9389 243.393C82.7368 232.312 91.4513 223.025 102.142 216.534C112.832 210.043 125.093 206.596 137.599 206.564C139.081 206.571 140.553 206.8 141.967 207.244C158.282 212.9 176.026 212.9 192.342 207.244C193.756 206.8 195.228 206.571 196.71 206.564C209.216 206.596 221.476 210.043 232.167 216.534C242.857 223.025 251.572 232.312 257.37 243.393C246.298 256.541 232.488 267.111 216.906 274.365C201.323 281.618 184.343 285.38 167.155 285.386V285.385Z" fill="#666666"/>
</svg>
